<svg width="14" height="12" viewBox="0 0 14 12" fill="none" xmlns="http://www.w3.org/2000/svg">
<path d="M5.66667 3.33366V2.00033C5.66667 1.6467 5.80714 1.30756 6.05719 1.05752C6.30724 0.807468 6.64638 0.666992 7 0.666992H11.6667C12.0203 0.666992 12.3594 0.807468 12.6095 1.05752C12.8595 1.30756 13 1.6467 13 2.00033V10.0003C13 10.3539 12.8595 10.6931 12.6095 10.9431C12.3594 11.1932 12.0203 11.3337 11.6667 11.3337H7C6.64638 11.3337 6.30724 11.1932 6.05719 10.9431C5.80714 10.6931 5.66667 10.3539 5.66667 10.0003V8.66699M10.3333 6.00033H1M1 6.00033L3 4.00033M1 6.00033L3 8.00033" stroke="#002D42" stroke-linecap="round" stroke-linejoin="round"/>
</svg>
