<svg width="16" height="16" viewBox="0 0 16 16" fill="none" xmlns="http://www.w3.org/2000/svg">
<path d="M5.99967 5.33366H5.99301M13.333 10.0003L10.6663 7.33363C10.3623 7.04107 10.0174 6.88704 9.66634 6.88704C9.31527 6.88704 8.97038 7.04107 8.66634 7.33363L5.33301 10.667M6.66634 9.33363L5.99967 8.66696C5.69564 8.3744 5.35075 8.22038 4.99967 8.22038C4.6486 8.22038 4.30371 8.3744 3.99968 8.66696L2.66634 10.0003M11.333 2.66699H4.66634C3.56177 2.66699 2.66634 3.56242 2.66634 4.66699V11.3337C2.66634 12.4382 3.56177 13.3337 4.66634 13.3337H11.333C12.4376 13.3337 13.333 12.4382 13.333 11.3337V4.66699C13.333 3.56242 12.4376 2.66699 11.333 2.66699Z" stroke="#002D42" stroke-linecap="round" stroke-linejoin="round"/>
</svg>
