<svg width="18" height="16" viewBox="0 0 18 16" fill="none" xmlns="http://www.w3.org/2000/svg">
<path d="M15.25 8.47706L9 14.6671L2.75 8.47706C2.33775 8.0759 2.01303 7.59374 1.79629 7.06092C1.57954 6.52811 1.47546 5.95618 1.49061 5.38117C1.50576 4.80615 1.6398 4.2405 1.88429 3.71984C2.12879 3.19917 2.47844 2.73477 2.91124 2.35587C3.34403 1.97698 3.85058 1.6918 4.39901 1.51829C4.94743 1.34479 5.52583 1.28671 6.0978 1.34773C6.66977 1.40874 7.22291 1.58752 7.72239 1.87281C8.22187 2.1581 8.65687 2.54372 9 3.00539C9.34461 2.54708 9.78011 2.16483 10.2792 1.88256C10.7784 1.6003 11.3304 1.4241 11.9008 1.36499C12.4711 1.30588 13.0476 1.36514 13.594 1.53905C14.1404 1.71296 14.645 1.99779 15.0763 2.37569C15.5076 2.7536 15.8562 3.21646 16.1003 3.7353C16.3445 4.25414 16.4789 4.81779 16.4953 5.39098C16.5116 5.96417 16.4094 6.53455 16.1951 7.06643C15.9808 7.59831 15.6591 8.08024 15.25 8.48206" stroke="#002D42" stroke-width="2" stroke-linecap="round" stroke-linejoin="round"/>
</svg>
