<svg width="16" height="18" viewBox="0 0 16 18" fill="none" xmlns="http://www.w3.org/2000/svg">
<path d="M7.99992 10.6665C9.38063 10.6665 10.4999 9.54718 10.4999 8.16646C10.4999 6.78575 9.38063 5.66646 7.99992 5.66646C6.61921 5.66646 5.49992 6.78575 5.49992 8.16646C5.49992 9.54718 6.61921 10.6665 7.99992 10.6665Z" stroke="#002D42" stroke-width="1.4" stroke-linecap="round" stroke-linejoin="round"/>
<path d="M12.7141 12.8806L9.17826 16.4164C8.86574 16.7286 8.44207 16.904 8.00034 16.904C7.5586 16.904 7.13493 16.7286 6.82242 16.4164L3.28576 12.8806C2.35344 11.9482 1.71853 10.7603 1.46133 9.46714C1.20412 8.17395 1.33616 6.83352 1.84076 5.61536C2.34535 4.39721 3.19984 3.35604 4.29616 2.62351C5.39248 1.89098 6.68139 1.5 7.99992 1.5C9.31845 1.5 10.6074 1.89098 11.7037 2.62351C12.8 3.35604 13.6545 4.39721 14.1591 5.61536C14.6637 6.83352 14.7957 8.17395 14.5385 9.46714C14.2813 10.7603 13.6464 11.9482 12.7141 12.8806Z" stroke="#002D42" stroke-width="1.4" stroke-linecap="round" stroke-linejoin="round"/>
</svg>
