<svg width="299" height="299" viewBox="0 0 299 299" fill="none" xmlns="http://www.w3.org/2000/svg">
<g clip-path="url(#clip0_36_3944)">
<path d="M40.7681 91.8728L41.2513 91.1808C41.2513 91.1808 49.8769 89.4578 53.9127 83.7803C55.4758 81.5771 56.2148 78.7807 53.3016 76.747C49.948 74.3884 45.6423 77.7497 41.777 79.9529C36.1497 83.1871 31.0056 85.7434 25.2362 81.6901C18.3442 76.8317 19.0689 68.9652 23.9146 62.172C28.1635 56.1979 32.6256 53.458 32.6256 53.458L38.7218 58.4858L38.2387 59.1779C38.2387 59.1779 31.4745 61.3952 28.2062 65.9993C26.6004 68.2449 26.2451 70.7164 28.3198 72.1711C31.8724 74.6709 36.9029 70.4905 40.3986 68.4002C45.5712 65.279 50.3175 62.8922 56.1721 67.0162C64.8831 73.1456 62.5526 81.2099 57.8489 87.8054C52.9322 94.7116 47.5749 97.5503 47.5749 97.5503L40.7539 91.8728H40.7681Z" fill="#002D42"/>
<path d="M52.0376 41.5913L42.3319 49.4013L38.4951 44.6983L66.2195 22.4121L70.0563 27.1151L60.3933 34.8828L82.2488 61.7308L73.8931 68.4393L52.0376 41.5913Z" fill="#002D42"/>
<path d="M75.5703 17.1148L85.5602 13.1886L95.0243 37.0001C97.639 43.5815 101.405 44.8808 105.881 43.1154C109.135 41.8302 111.366 38.6384 110.13 34.232C109.931 33.4128 109.618 32.2971 109.363 31.6333L105.753 22.538C101.49 11.8327 99.0316 7.90652 99.0316 7.90652L107.785 4.47461L117.533 29.0205C121.242 38.3277 116.397 45.5869 106.862 49.3295C95.2516 53.8913 88.8996 50.643 85.7023 42.6211L75.5703 17.1289V17.1148Z" fill="#002D42"/>
<path d="M124.412 1.0321C128.206 0.636654 133.919 0.142345 138.75 0.0152376C154.609 -0.380209 163.59 4.25217 163.945 18.5871C164.357 34.8852 151.781 41.3112 137.67 41.7207C133.507 41.8196 128.803 41.7066 125.421 41.6077L124.412 1.0321ZM140.74 36.4246C148.939 36.2268 152.534 30.3234 152.279 20.3666C152.009 9.52008 147.063 4.84534 139.404 5.02894C136.747 5.09955 135.198 5.43851 135.198 5.43851L135.951 35.8879C135.951 35.8879 137.599 36.5093 140.726 36.4246H140.74Z" fill="#002D42"/>
<path d="M177.387 3.2041L202.738 10.7882L200.649 17.6803C200.649 17.6803 194.624 14.0648 187.988 12.0734L186.084 11.5085L182.787 22.4115L197.395 26.7755L195.86 31.8316L181.252 27.4676L177.458 39.9806L180.343 40.8421C186.979 42.8335 194.013 42.9324 194.013 42.9324L191.896 49.9374L165.606 42.085L177.373 3.21822L177.387 3.2041Z" fill="#002D42"/>
<path d="M217.09 16.9346L226.781 23.6713L225.417 54.6997L240.523 33.2326L247.443 38.0345L224.053 71.2944L215.001 65.0096L216.337 32.4417L200.507 54.9398L193.686 50.1945L217.076 16.9346H217.09Z" fill="#002D42"/>
<path d="M257.606 58.9532L250.06 49.0671L254.92 45.4092L276.449 73.6412L271.589 77.2991L264.086 67.4553L236.404 88.3151L229.924 79.813L257.606 58.9532Z" fill="#002D42"/>
<path d="M49.9328 202.445L56.6117 210.806L43.3392 221.286L52.7607 233.078L66.0331 222.599L72.712 230.96L40.7245 256.198L34.0456 247.837L47.8865 236.92L38.4651 225.127L24.6242 236.058L17.9453 227.697L49.9328 202.459V202.445Z" fill="#002D42"/>
<path d="M79.7719 236.419L89.2218 241.489L76.9724 264.015C73.5904 270.244 75.0114 273.93 79.2603 276.218C82.344 277.87 86.2376 277.517 88.8381 273.732C89.3497 273.054 90.0033 272.108 90.3444 271.472L95.0196 262.872C100.533 252.745 101.968 248.339 101.968 248.339L110.253 252.788L97.6343 276.006C92.8454 284.819 84.1487 285.807 75.1251 280.949C64.1405 275.046 62.5489 268.125 66.6841 260.527L79.8003 236.419H79.7719Z" fill="#002D42"/>
<path d="M118.681 255.406L130.461 256.409L144.913 283.949L147.173 257.85L155.585 258.57L152.075 299.004L141.076 298.058L125.843 269.19L123.47 296.547L115.171 295.841L118.681 255.406Z" fill="#002D42"/>
<path d="M173.223 260.429L161.229 263.875L159.538 258.057L193.785 248.241L195.476 254.06L183.539 257.492L193.174 290.667L182.857 293.619L173.223 260.444V260.429Z" fill="#002D42"/>
<path d="M198.089 245.218L219.831 230.177L223.966 236.08C223.966 236.08 217.372 238.524 211.674 242.464L210.04 243.594L216.591 252.943L229.124 244.272L232.165 248.607L219.632 257.279L227.149 268.013L229.622 266.304C235.32 262.363 239.754 256.954 239.754 256.954L243.96 262.956L221.436 278.548L198.089 245.232V245.218Z" fill="#002D42"/>
<path d="M226.554 224.122C228.515 220.873 231.215 216.255 234 212.258C238.732 205.451 246.15 196.483 254.534 202.231C259.593 205.705 260.545 211.82 258.371 217.696L281.42 216.608L274.187 227.017L254.463 225.859L251.095 223.542C254.108 219.207 253.894 214.235 249.773 211.411C245.51 208.487 241.546 210.281 238.732 214.32C237.467 216.142 236.714 218.176 236.714 218.176L266.243 238.456L260.175 247.185L226.568 224.122H226.554Z" fill="#002D42"/>
<path d="M0 136.635H10.2599V138.824C10.2599 138.824 8.29884 138.316 4.63257 138.316H2.8847V144.474H10.0183V146.154H2.8847V153.06H5.11573C8.81042 153.06 10.743 152.58 10.743 152.58V154.741H0V136.621V136.635Z" fill="#C3A182"/>
<path d="M12.8429 151.405C12.8429 151.405 15.2161 153.467 18.4418 153.467C20.3318 153.467 21.8949 152.393 21.8949 150.261C21.8949 148.128 20.5734 147.45 18.186 146.645C15.6566 145.812 12.7719 144.852 12.7719 141.377C12.7719 137.903 15.4861 136.321 19.0244 136.321C22.0655 136.321 23.7139 137.013 23.7139 137.013L23.5007 139.527C23.5007 139.527 21.696 137.875 19.1665 137.875C17.3334 137.875 15.614 138.652 15.614 140.714C15.614 142.903 17.2766 143.496 19.4934 144.16C21.9234 144.88 24.9644 145.84 24.9644 149.541C24.9644 153.721 21.7386 155.133 18.3139 155.133C14.8892 155.133 12.6582 154.229 12.6582 154.229C12.7435 153.297 12.8145 152.351 12.8714 151.419L12.8429 151.405Z" fill="#C3A182"/>
<path d="M32.4104 138.366H26.2715V136.629H41.4339V138.366H35.2951V154.749H32.4104V138.366Z" fill="#C3A182"/>
<path d="M251.268 152.776V154.753H238.834V152.903C238.834 152.903 241.719 150.601 243.765 148.723C246.024 146.689 248.014 144.542 248.014 141.873C248.014 139.543 246.323 138.399 243.808 138.399C241.648 138.399 239.63 139.529 239.63 139.529V137.227C239.63 137.227 241.918 136.337 244.93 136.337C248.426 136.337 251.041 137.749 251.041 141.506C251.041 145.842 245.285 150.121 241.747 152.776H251.254H251.268Z" fill="#C3A182"/>
<path d="M260.988 155.091C255.844 155.091 254.451 150.36 254.451 146.094C254.451 141.095 256.469 136.321 261.67 136.321C266.871 136.321 268.207 141.053 268.207 145.318C268.207 150.317 266.189 155.091 260.988 155.091ZM261.585 153.269C264.981 153.269 265.436 148.34 265.436 146.066C265.407 143.227 264.711 138.143 261.102 138.143C257.705 138.143 257.251 143.072 257.251 145.346C257.279 148.185 257.975 153.269 261.585 153.269Z" fill="#C3A182"/>
<path d="M283.087 152.776V154.753H270.653V152.903C270.653 152.903 273.538 150.601 275.584 148.723C277.844 146.689 279.833 144.542 279.833 141.873C279.833 139.543 278.142 138.399 275.627 138.399C273.467 138.399 271.449 139.529 271.449 139.529V137.227C271.449 137.227 273.737 136.337 276.75 136.337C280.245 136.337 282.86 137.749 282.86 141.506C282.86 145.842 277.105 150.121 273.566 152.776H283.073H283.087Z" fill="#C3A182"/>
<path d="M298.997 152.776V154.753H286.562V152.903C286.562 152.903 289.447 150.601 291.493 148.723C293.753 146.689 295.742 144.542 295.742 141.873C295.742 139.543 294.051 138.399 291.536 138.399C289.376 138.399 287.358 139.529 287.358 139.529V137.227C287.358 137.227 289.646 136.337 292.659 136.337C296.154 136.337 298.769 137.749 298.769 141.506C298.769 145.842 293.014 150.121 289.476 152.776H298.982H298.997Z" fill="#C3A182"/>
<path d="M141.17 101.771V143.194L120.38 139.945V110.202C125.012 109.524 132.771 107.547 141.17 101.785V101.771Z" fill="#C3A182"/>
<path d="M141.17 71.5913V93.355C134.064 98.4816 126.874 101.222 120.38 102.577V71.5771H141.17V71.5913Z" fill="#C3A182"/>
<path d="M141.17 206.933V219.588H120.38V197.711C126.874 199.067 134.05 201.807 141.17 206.933Z" fill="#C3A182"/>
<path d="M172.918 110.203V148.18L152.128 144.932V101.786C160.526 107.548 168.271 109.54 172.918 110.203Z" fill="#C3A182"/>
<path d="M152.128 198.688V157.265L172.918 160.513V190.256C168.285 190.934 160.526 192.911 152.128 198.674V198.688Z" fill="#C3A182"/>
<path d="M120.38 190.27V152.293L141.17 155.541V198.687C132.771 192.925 125.027 190.934 120.38 190.27Z" fill="#C3A182"/>
<path d="M172.918 71.5928V102.593C166.424 101.237 159.247 98.4973 152.128 93.3706V71.6069H172.918V71.5928Z" fill="#C3A182"/>
<path d="M172.918 197.71V219.587H152.128V206.932C159.233 201.806 166.424 199.066 172.918 197.71Z" fill="#C3A182"/>
<path d="M177.362 143.829V106.996C177.362 106.996 175.699 107.066 172.914 106.657C168.282 105.979 160.523 104.001 152.124 98.2392C150.32 96.9964 148.487 95.5841 146.639 93.9741C144.806 95.5841 142.959 96.9964 141.154 98.2392C132.756 104.001 125.011 105.993 120.364 106.657C117.579 107.066 115.916 106.996 115.916 106.996V141.696L120.364 142.388L141.154 145.636L152.11 147.359L172.9 150.608L197.91 154.52V199.459C197.91 199.459 187.011 195.858 172.9 198.796C166.406 200.151 159.23 202.891 152.11 208.018C150.277 209.331 148.444 210.814 146.625 212.481C144.82 210.814 142.973 209.346 141.14 208.018C134.035 202.891 126.844 200.151 120.35 198.796C106.239 195.844 95.3398 199.459 95.3398 199.459V153.319L115.902 156.652V193.485C115.902 193.485 117.565 193.415 120.35 193.824C124.983 194.502 132.741 196.479 141.14 202.242C142.945 203.485 144.778 204.897 146.625 206.507C148.458 204.897 150.305 203.485 152.11 202.242C160.509 196.479 168.253 194.488 172.9 193.824C175.685 193.415 177.348 193.485 177.348 193.485V158.474L172.9 157.782L152.11 154.534L141.154 152.825L120.364 149.577L95.3541 145.665V101.021C95.3541 101.021 106.253 104.623 120.364 101.685C126.858 100.329 134.035 97.5896 141.154 92.4629C142.987 91.1494 144.82 89.6665 146.639 88C148.444 89.6665 150.291 91.1353 152.124 92.4629C159.23 97.5896 166.42 100.329 172.914 101.685C187.025 104.637 197.924 101.021 197.924 101.021V147.162L177.362 143.829Z" fill="#C3A182"/>
</g>
<defs>
<clipPath id="clip0_36_3944">
<rect width="299" height="299" fill="white"/>
</clipPath>
</defs>
</svg>
