<svg width="26" height="26" viewBox="0 0 26 26" fill="none" xmlns="http://www.w3.org/2000/svg">
<g clip-path="url(#clip0_43_4912)">
<path d="M17.8728 0C16.4867 0.0958744 14.8666 0.983119 13.9225 2.13849C13.0613 3.18661 12.3528 4.74335 12.629 6.25621C14.1435 6.30334 15.7084 5.39497 16.6151 4.2201C17.4633 3.12648 18.1052 1.57949 17.8728 0Z" fill="#002D42"/>
<path d="M23.3522 8.7233C22.0214 7.05443 20.151 6.08594 18.3847 6.08594C16.0528 6.08594 15.0664 7.20231 13.4463 7.20231C11.7758 7.20231 10.5067 6.08919 8.49008 6.08919C6.50922 6.08919 4.39998 7.29981 3.06262 9.37004C1.1825 12.2853 1.50425 17.7664 4.55111 22.435C5.64148 24.1055 7.09747 25.9839 9.00196 26.0002C10.6968 26.0164 11.1746 24.9131 13.4707 24.9017C15.7668 24.8887 16.2023 26.0148 17.8939 25.9969C19.8 25.9823 21.3356 23.9007 22.426 22.2302C23.2076 21.0326 23.4985 20.4297 24.1046 19.0777C19.696 17.3991 18.9891 11.1299 23.3522 8.7233Z" fill="#002D42"/>
</g>
<defs>
<clipPath id="clip0_43_4912">
<rect width="26" height="26" fill="white"/>
</clipPath>
</defs>
</svg>
