<svg width="44" height="44" viewBox="0 0 44 44" fill="none" xmlns="http://www.w3.org/2000/svg">
<path d="M7.693 26V25.351C8.21367 24.9403 8.705 24.526 9.167 24.108C9.63633 23.6827 10.0507 23.2647 10.41 22.854C10.7767 22.4433 11.0627 22.04 11.268 21.644C11.4807 21.248 11.587 20.8667 11.587 20.5C11.587 20.2287 11.5393 19.9757 11.444 19.741C11.356 19.5063 11.2093 19.3193 11.004 19.18C10.7987 19.0333 10.52 18.96 10.168 18.96C9.83067 18.96 9.54833 19.037 9.321 19.191C9.09367 19.3377 8.92133 19.5357 8.804 19.785C8.694 20.0343 8.639 20.302 8.639 20.588H7.748C7.748 20.082 7.85433 19.6493 8.067 19.29C8.27967 18.9233 8.56933 18.6447 8.936 18.454C9.30267 18.2633 9.717 18.168 10.179 18.168C10.861 18.168 11.4183 18.3623 11.851 18.751C12.291 19.1323 12.511 19.7043 12.511 20.467C12.511 20.9217 12.3973 21.3727 12.17 21.82C11.9427 22.26 11.653 22.689 11.301 23.107C10.949 23.5177 10.5713 23.9027 10.168 24.262C9.772 24.6213 9.40167 24.944 9.057 25.23H12.775V26H7.693ZM14.5643 26L17.6223 19.092H13.3983V18.3H18.5683V18.993L15.5433 26H14.5643ZM22.1499 26.132C21.6439 26.132 21.1893 26.0403 20.7859 25.857C20.3826 25.6663 20.0636 25.406 19.8289 25.076C19.6016 24.7387 19.4879 24.35 19.4879 23.91C19.4879 23.4407 19.6236 23.019 19.8949 22.645C20.1736 22.271 20.5403 22.0217 20.9949 21.897C20.5769 21.7577 20.2543 21.534 20.0269 21.226C19.7996 20.918 19.6859 20.5807 19.6859 20.214C19.6859 19.84 19.7849 19.499 19.9829 19.191C20.1809 18.8757 20.4633 18.6263 20.8299 18.443C21.1966 18.2597 21.6366 18.168 22.1499 18.168C22.6633 18.168 23.1033 18.2597 23.4699 18.443C23.8366 18.6263 24.1189 18.8757 24.3169 19.191C24.5149 19.499 24.6139 19.84 24.6139 20.214C24.6139 20.5733 24.5003 20.9107 24.2729 21.226C24.0456 21.534 23.7229 21.7577 23.3049 21.897C23.7596 22.0217 24.1226 22.271 24.3939 22.645C24.6726 23.019 24.8119 23.4407 24.8119 23.91C24.8119 24.35 24.6946 24.7387 24.4599 25.076C24.2326 25.406 23.9173 25.6663 23.5139 25.857C23.1106 26.0403 22.6559 26.132 22.1499 26.132ZM22.1499 21.567C22.6193 21.567 22.9896 21.4497 23.2609 21.215C23.5396 20.973 23.6789 20.6577 23.6789 20.269C23.6789 19.8363 23.5433 19.51 23.2719 19.29C23.0006 19.07 22.6266 18.96 22.1499 18.96C21.6733 18.96 21.2993 19.07 21.0279 19.29C20.7639 19.51 20.6319 19.8363 20.6319 20.269C20.6319 20.6577 20.7676 20.973 21.0389 21.215C21.3103 21.4497 21.6806 21.567 22.1499 21.567ZM22.1499 25.318C22.7293 25.318 23.1619 25.186 23.4479 24.922C23.7413 24.6507 23.8879 24.295 23.8879 23.855C23.8879 23.3563 23.7303 22.9787 23.4149 22.722C23.0996 22.4653 22.6779 22.337 22.1499 22.337C21.6219 22.337 21.2003 22.4653 20.8849 22.722C20.5696 22.9787 20.4119 23.3563 20.4119 23.855C20.4119 24.295 20.5549 24.6507 20.8409 24.922C21.1343 25.186 21.5706 25.318 22.1499 25.318ZM26.2678 26V18.08H27.1918V22.843L29.4248 20.544H30.5578L28.1378 23.008L30.8658 26H29.6888L27.1918 23.173V26H26.2678ZM34.7258 26.132C34.2784 26.132 33.8788 26.0403 33.5268 25.857C33.1821 25.6737 32.9181 25.417 32.7348 25.087L32.6468 26H31.8108V18.08H32.7348V21.446C32.9108 21.182 33.1601 20.9437 33.4828 20.731C33.8128 20.5183 34.2308 20.412 34.7368 20.412C35.2794 20.412 35.7524 20.5367 36.1558 20.786C36.5591 21.0353 36.8708 21.3763 37.0908 21.809C37.3181 22.2417 37.4318 22.733 37.4318 23.283C37.4318 23.833 37.3181 24.3243 37.0908 24.757C36.8708 25.1823 36.5554 25.5197 36.1448 25.769C35.7414 26.011 35.2684 26.132 34.7258 26.132ZM34.6268 25.329C34.9934 25.329 35.3161 25.2447 35.5948 25.076C35.8734 24.9 36.0934 24.658 36.2548 24.35C36.4161 24.042 36.4968 23.6827 36.4968 23.272C36.4968 22.8613 36.4161 22.502 36.2548 22.194C36.0934 21.886 35.8734 21.6477 35.5948 21.479C35.3161 21.303 34.9934 21.215 34.6268 21.215C34.2601 21.215 33.9374 21.303 33.6588 21.479C33.3801 21.6477 33.1601 21.886 32.9988 22.194C32.8374 22.502 32.7568 22.8613 32.7568 23.272C32.7568 23.6827 32.8374 24.042 32.9988 24.35C33.1601 24.658 33.3801 24.9 33.6588 25.076C33.9374 25.2447 34.2601 25.329 34.6268 25.329Z" fill="#002D42"/>
<path fill-rule="evenodd" clip-rule="evenodd" d="M22 44C34.1503 44 44 34.1503 44 22C44 9.84974 34.1503 0 22 0C9.84974 0 0 9.84974 0 22C0 34.1503 9.84974 44 22 44ZM22 41C32.4934 41 41 32.4934 41 22C41 11.5066 32.4934 3 22 3C11.5066 3 3 11.5066 3 22C3 32.4934 11.5066 41 22 41Z" fill="white"/>
<mask id="mask0_36_2948" style="mask-type:alpha" maskUnits="userSpaceOnUse" x="0" y="0" width="44" height="44">
<path fill-rule="evenodd" clip-rule="evenodd" d="M22 44C34.1503 44 44 34.1503 44 22C44 9.84974 34.1503 0 22 0C9.84974 0 0 9.84974 0 22C0 34.1503 9.84974 44 22 44ZM22 41C32.4934 41 41 32.4934 41 22C41 11.5066 32.4934 3 22 3C11.5066 3 3 11.5066 3 22C3 32.4934 11.5066 41 22 41Z" fill="white"/>
</mask>
<g mask="url(#mask0_36_2948)">
<path d="M-0.583647 35.25C1.65445 39.1265 4.87351 42.3456 8.75 44.5836C12.6265 46.8217 17.0238 48 21.5 48C25.9762 48 30.3735 46.8217 34.25 44.5836C38.1265 42.3456 41.3456 39.1265 43.5836 35.25C45.8217 31.3735 47 26.9762 47 22.5C47 18.0238 45.8217 13.6265 43.5836 9.75C41.3456 5.87351 38.1265 2.65444 34.25 0.41635C30.3735 -1.82174 25.9762 -3 21.5 -3L21.5 22.5L-0.583647 35.25Z" fill="#002D42"/>
</g>
</svg>
