<svg width="83" height="2" viewBox="0 0 83 2" fill="none" xmlns="http://www.w3.org/2000/svg">
<circle cx="1" cy="1" r="1" fill="#002D42"/>
<circle cx="4" cy="1" r="1" fill="#002D42"/>
<circle cx="7" cy="1" r="1" fill="#002D42"/>
<circle cx="10" cy="1" r="1" fill="#002D42"/>
<circle cx="13" cy="1" r="1" fill="#002D42"/>
<circle cx="16" cy="1" r="1" fill="#002D42"/>
<circle cx="19" cy="1" r="1" fill="#002D42"/>
<circle cx="22" cy="1" r="1" fill="#002D42"/>
<circle cx="25" cy="1" r="1" fill="#002D42"/>
<circle cx="28" cy="1" r="1" fill="#002D42"/>
<circle cx="31" cy="1" r="1" fill="#002D42"/>
<circle cx="34" cy="1" r="1" fill="#002D42"/>
<circle cx="37" cy="1" r="1" fill="#002D42"/>
<circle cx="40" cy="1" r="1" fill="#002D42"/>
<circle cx="43" cy="1" r="1" fill="#002D42"/>
<circle cx="46" cy="1" r="1" fill="#002D42"/>
<circle cx="49" cy="1" r="1" fill="#002D42"/>
<circle cx="52" cy="1" r="1" fill="#002D42"/>
<circle cx="55" cy="1" r="1" fill="#002D42"/>
<circle cx="58" cy="1" r="1" fill="#002D42"/>
<circle cx="61" cy="1" r="1" fill="#002D42"/>
<circle cx="64" cy="1" r="1" fill="#002D42"/>
<circle cx="67" cy="1" r="1" fill="#002D42"/>
<circle cx="70" cy="1" r="1" fill="#002D42"/>
<circle cx="73" cy="1" r="1" fill="#002D42"/>
<circle cx="76" cy="1" r="1" fill="#002D42"/>
<circle cx="79" cy="1" r="1" fill="#002D42"/>
<circle cx="82" cy="1" r="1" fill="#002D42"/>
</svg>
