<svg width="24" height="24" viewBox="0 0 24 24" fill="none" xmlns="http://www.w3.org/2000/svg">
<mask id="mask0_43_4618" style="mask-type:alpha" maskUnits="userSpaceOnUse" x="0" y="0" width="24" height="24">
<rect width="24" height="24" fill="#D9D9D9"/>
</mask>
<g mask="url(#mask0_43_4618)">
<path fill-rule="evenodd" clip-rule="evenodd" d="M15.5683 9.58872C17.4218 10.9377 19.661 11.4369 21.1453 11.4782L21.1309 12.5214H20.6896C19.2298 12.5613 17.2381 12.9997 15.564 14.1921C13.7481 15.4853 12.2613 17.6949 12.2613 21.391H11.2178C11.2178 17.3654 12.8614 14.8358 14.9586 13.3421C15.4091 13.0213 15.8784 12.7497 16.354 12.5214H3.13086V11.478H16.7533C16.1402 11.1978 15.5316 10.8526 14.9543 10.4324C12.8698 8.91541 11.2178 6.4359 11.2178 2.6084H12.2613C12.2613 6.08524 13.7397 8.25791 15.5683 9.58872Z" fill="#002D42" stroke="#002D42"/>
</g>
</svg>
