<svg width="74" height="74" viewBox="0 0 74 74" fill="none" xmlns="http://www.w3.org/2000/svg">
<g clip-path="url(#clip0_43_4664)">
<path d="M10.0898 22.7378L10.2094 22.5665C10.2094 22.5665 12.3442 22.1401 13.343 20.735C13.7299 20.1897 13.9127 19.4976 13.1918 18.9943C12.3618 18.4106 11.2961 19.2425 10.3395 19.7877C8.94682 20.5882 7.67368 21.2208 6.2458 20.2177C4.54009 19.0153 4.71945 17.0684 5.91873 15.3871C6.97029 13.9086 8.07461 13.2305 8.07461 13.2305L9.58338 14.4748L9.46381 14.6461C9.46381 14.6461 7.78974 15.1949 6.98085 16.3343C6.58343 16.8901 6.49551 17.5018 7.00898 17.8618C7.88822 18.4805 9.13321 17.4459 9.99838 16.9285C11.2786 16.1561 12.4532 15.5654 13.9022 16.586C16.0581 18.103 15.4813 20.0988 14.3172 21.7312C13.1003 23.4404 11.7744 24.1429 11.7744 24.1429L10.0863 22.7378H10.0898Z" fill="#002D42"/>
<path d="M12.879 10.2945L10.4769 12.2275L9.52734 11.0635L16.3889 5.54785L17.3385 6.7118L14.947 8.63424L20.356 15.2789L18.288 16.9392L12.879 10.2945Z" fill="#002D42"/>
<path d="M18.7031 4.23673L21.1755 3.26503L23.5178 9.15818C24.1649 10.787 25.0969 11.1086 26.2048 10.6717C27.0101 10.3536 27.5623 9.56364 27.2563 8.47309C27.2071 8.27036 27.1297 7.99423 27.0664 7.82995L26.1731 5.57895C25.118 2.92947 24.5096 1.95777 24.5096 1.95777L26.676 1.1084L29.0887 7.18331C30.0066 9.48675 28.8073 11.2834 26.4474 12.2096C23.5741 13.3386 22.002 12.5347 21.2107 10.5493L18.7031 4.24023V4.23673Z" fill="#002D42"/>
<path d="M30.791 0.255417C31.73 0.157547 33.1438 0.0352097 34.3396 0.00375159C38.2645 -0.0941181 40.4872 1.05236 40.5752 4.60013C40.6771 8.63376 37.5646 10.2241 34.0723 10.3255C33.0419 10.35 31.8778 10.322 31.0407 10.2975L30.791 0.255417ZM34.832 9.01476C36.8613 8.96582 37.751 7.50477 37.6877 5.04055C37.6209 2.35612 36.397 1.19916 34.5014 1.2446C33.8437 1.26208 33.4604 1.34597 33.4604 1.34597L33.6468 8.88193C33.6468 8.88193 34.0547 9.03573 34.8285 9.01476H34.832Z" fill="#002D42"/>
<path d="M43.9019 0.793945L50.1761 2.67095L49.6591 4.37668C49.6591 4.37668 48.1679 3.48187 46.5255 2.98902L46.0542 2.84921L45.2383 5.54762L48.8537 6.62768L48.4739 7.87901L44.8585 6.79895L43.9195 9.89583L44.6334 10.109C46.2758 10.6019 48.0167 10.6264 48.0167 10.6264L47.4927 12.36L40.9863 10.4166L43.8984 0.797441L43.9019 0.793945Z" fill="#002D42"/>
<path d="M53.728 4.19141L56.1265 5.85869L55.7889 13.538L59.5274 8.22504L61.2401 9.41346L55.4513 17.645L53.211 16.0896L53.5416 8.0293L49.6237 13.5974L47.9355 12.4229L53.7244 4.19141H53.728Z" fill="#002D42"/>
<path d="M63.7553 14.5903L61.8878 12.1436L63.0906 11.2383L68.4188 18.2255L67.216 19.1308L65.359 16.6945L58.508 21.8571L56.9043 19.7529L63.7553 14.5903Z" fill="#002D42"/>
<path d="M12.358 50.1025L14.011 52.1718L10.7262 54.7653L13.0579 57.6839L16.3427 55.0904L17.9957 57.1596L10.0791 63.4058L8.4261 61.3366L11.8516 58.6347L9.51987 55.7161L6.09437 58.4215L4.44141 56.3522L12.358 50.106V50.1025Z" fill="#002D42"/>
<path d="M19.744 58.5127L22.0828 59.7675L19.0512 65.3426C18.2141 66.8841 18.5658 67.7963 19.6174 68.3626C20.3806 68.7715 21.3442 68.6842 21.9878 67.7474C22.1144 67.5796 22.2762 67.3454 22.3606 67.1881L23.5177 65.0595C24.8823 62.5533 25.2375 61.4628 25.2375 61.4628L27.2878 62.5638L24.1648 68.3102C22.9796 70.4913 20.8272 70.7359 18.594 69.5335C15.8754 68.0725 15.4815 66.3598 16.5049 64.4793L19.751 58.5127H19.744Z" fill="#002D42"/>
<path d="M29.3726 63.21L32.2881 63.4581L35.8649 70.2741L36.4241 63.8147L38.5061 63.9929L37.6374 74.0001L34.9153 73.7659L31.1451 66.6214L30.5578 73.3919L28.5039 73.2171L29.3726 63.21Z" fill="#002D42"/>
<path d="M42.8712 64.455L39.9029 65.3078L39.4844 63.8677L47.9602 61.4385L48.3787 62.8786L45.4245 63.7279L47.809 71.9385L45.2557 72.669L42.8712 64.4585V64.455Z" fill="#002D42"/>
<path d="M49.0254 60.6903L54.4063 56.9678L55.4297 58.4288C55.4297 58.4288 53.7979 59.0335 52.3876 60.0087L51.9831 60.2884L53.6045 62.6023L56.7064 60.4561L57.459 61.5292L54.3571 63.6753L56.2175 66.3318L56.8295 65.9089C58.2398 64.9337 59.3371 63.595 59.3371 63.595L60.3781 65.0805L54.8037 68.9393L49.0254 60.6938V60.6903Z" fill="#002D42"/>
<path d="M56.0703 55.4682C56.5557 54.6643 57.2239 53.5213 57.9132 52.5321C59.0843 50.8473 60.9202 48.6278 62.9952 50.0504C64.2472 50.9103 64.4828 52.4237 63.9448 53.8778L69.6492 53.6087L67.8591 56.1847L62.9776 55.8981L62.1441 55.3249C62.8897 54.2518 62.8369 53.0214 61.817 52.3224C60.7619 51.5988 59.7807 52.0427 59.0843 53.0424C58.7713 53.4933 58.5849 53.9966 58.5849 53.9966L65.8931 59.016L64.3914 61.1761L56.0738 55.4682H56.0703Z" fill="#002D42"/>
<path d="M0 33.814H2.53923V34.3558C2.53923 34.3558 2.05389 34.23 1.14652 34.23H0.713939V35.754H2.47944V36.1699H0.713939V37.8791H1.2661C2.1805 37.8791 2.65881 37.7603 2.65881 37.7603V38.2951H0V33.8105V33.814Z" fill="#C3A182"/>
<path d="M3.17951 37.4703C3.17951 37.4703 3.76684 37.9807 4.56518 37.9807C5.03294 37.9807 5.4198 37.715 5.4198 37.1872C5.4198 36.6594 5.09273 36.4916 4.50188 36.2924C3.87586 36.0862 3.16192 35.8485 3.16192 34.9886C3.16192 34.1288 3.83366 33.7373 4.70938 33.7373C5.46201 33.7373 5.86997 33.9086 5.86997 33.9086L5.81722 34.5308C5.81722 34.5308 5.37056 34.1218 4.74455 34.1218C4.29086 34.1218 3.86531 34.314 3.86531 34.8244C3.86531 35.3661 4.2768 35.5129 4.82544 35.6772C5.42684 35.8555 6.17946 36.0932 6.17946 37.009C6.17946 38.0436 5.38112 38.3931 4.53353 38.3931C3.68595 38.3931 3.13379 38.1694 3.13379 38.1694C3.15489 37.9387 3.17248 37.7045 3.18654 37.4738L3.17951 37.4703Z" fill="#C3A182"/>
<path d="M8.02225 34.2444H6.50293V33.8145H10.2555V34.2444H8.73619V38.299H8.02225V34.2444Z" fill="#C3A182"/>
<path d="M62.1867 37.8098V38.2991H59.1094V37.8413C59.1094 37.8413 59.8233 37.2715 60.3297 36.8066C60.8889 36.3033 61.3813 35.772 61.3813 35.1114C61.3813 34.5347 60.9628 34.2515 60.3403 34.2515C59.8057 34.2515 59.3063 34.5312 59.3063 34.5312V33.9614C59.3063 33.9614 59.8725 33.7412 60.6181 33.7412C61.4833 33.7412 62.1304 34.0907 62.1304 35.0205C62.1304 36.0936 60.7061 37.1527 59.8303 37.8098H62.1832H62.1867Z" fill="#C3A182"/>
<path d="M64.5924 38.3826C63.3193 38.3826 62.9746 37.2117 62.9746 36.1561C62.9746 34.9187 63.474 33.7373 64.7612 33.7373C66.0484 33.7373 66.379 34.9082 66.379 35.9638C66.379 37.2012 65.8796 38.3826 64.5924 38.3826ZM64.7401 37.9317C65.5807 37.9317 65.6932 36.7118 65.6932 36.1491C65.6862 35.4465 65.5138 34.1882 64.6205 34.1882C63.78 34.1882 63.6674 35.4081 63.6674 35.9708C63.6745 36.6734 63.8468 37.9317 64.7401 37.9317Z" fill="#C3A182"/>
<path d="M70.0617 37.8098V38.2991H66.9844V37.8413C66.9844 37.8413 67.6983 37.2715 68.2047 36.8066C68.7639 36.3033 69.2563 35.772 69.2563 35.1114C69.2563 34.5347 68.8378 34.2515 68.2153 34.2515C67.6807 34.2515 67.1813 34.5312 67.1813 34.5312V33.9614C67.1813 33.9614 67.7475 33.7412 68.4931 33.7412C69.3583 33.7412 70.0054 34.0907 70.0054 35.0205C70.0054 36.0936 68.5811 37.1527 67.7053 37.8098H70.0582H70.0617Z" fill="#C3A182"/>
<path d="M74.0002 37.8098V38.2991H70.9229V37.8413C70.9229 37.8413 71.6368 37.2715 72.1432 36.8066C72.7024 36.3033 73.1948 35.772 73.1948 35.1114C73.1948 34.5347 72.7763 34.2515 72.1538 34.2515C71.6192 34.2515 71.1198 34.5312 71.1198 34.5312V33.9614C71.1198 33.9614 71.686 33.7412 72.4316 33.7412C73.2968 33.7412 73.9439 34.0907 73.9439 35.0205C73.9439 36.0936 72.5195 37.1527 71.6438 37.8098H73.9967H74.0002Z" fill="#C3A182"/>
<path d="M34.9373 25.1875V35.4394L29.792 34.6354V27.2742C30.9385 27.1064 32.8588 26.6171 34.9373 25.191V25.1875Z" fill="#C3A182"/>
<path d="M34.9373 17.7183V23.1047C33.1788 24.3735 31.3992 25.0516 29.792 25.3871V17.7148H34.9373V17.7183Z" fill="#C3A182"/>
<path d="M34.9373 51.2141V54.3459H29.792V48.9316C31.3992 49.2672 33.1753 49.9453 34.9373 51.2141Z" fill="#C3A182"/>
<path d="M42.7937 27.2746V36.6736L37.6484 35.8697V25.1914C39.727 26.6175 41.6437 27.1104 42.7937 27.2746Z" fill="#C3A182"/>
<path d="M37.6484 49.1727V38.9209L42.7937 39.7248V47.086C41.6472 47.2538 39.727 47.7432 37.6484 49.1693V49.1727Z" fill="#C3A182"/>
<path d="M29.792 47.0894V37.6904L34.9373 38.4944V49.1726C32.8588 47.7465 30.942 47.2537 29.792 47.0894Z" fill="#C3A182"/>
<path d="M42.7937 17.7188V25.391C41.1865 25.0555 39.4104 24.3774 37.6484 23.1086V17.7222H42.7937V17.7188Z" fill="#C3A182"/>
<path d="M42.7937 48.9316V54.3459H37.6484V51.2141C39.4069 49.9453 41.1865 49.2672 42.7937 48.9316Z" fill="#C3A182"/>
<path d="M43.8945 35.5974V26.4815C43.8945 26.4815 43.483 26.499 42.7937 26.3976C41.6472 26.2298 39.7269 25.7405 37.6484 24.3144C37.2018 24.0068 36.7481 23.6573 36.2909 23.2588C35.8372 23.6573 35.38 24.0068 34.9334 24.3144C32.8548 25.7405 30.9381 26.2333 29.7881 26.3976C29.0987 26.499 28.6873 26.4815 28.6873 26.4815V35.0696L29.7881 35.2409L34.9334 36.0448L37.6449 36.4712L42.7902 37.2751L48.98 38.2434V49.3656C48.98 49.3656 46.2825 48.4742 42.7902 49.2013C41.183 49.5368 39.4069 50.2149 37.6449 51.4837C37.1912 51.8088 36.7375 52.1758 36.2874 52.5883C35.8407 52.1758 35.3835 51.8123 34.9298 51.4837C33.1714 50.2149 31.3918 49.5368 29.7845 49.2013C26.2922 48.4707 23.5947 49.3656 23.5947 49.3656V37.9463L28.6837 38.7712V47.887C28.6837 47.887 29.0952 47.8695 29.7845 47.9709C30.9311 48.1387 32.8513 48.628 34.9298 50.0541C35.3765 50.3617 35.8302 50.7113 36.2874 51.1097C36.7411 50.7113 37.1983 50.3617 37.6449 50.0541C39.7234 48.628 41.6402 48.1352 42.7902 47.9709C43.4795 47.8695 43.891 47.887 43.891 47.887V39.2221L42.7902 39.0508L37.6449 38.2469L34.9334 37.8239L29.7881 37.02L23.5982 36.0518V25.003C23.5982 25.003 26.2957 25.8943 29.7881 25.1673C31.3953 24.8317 33.1714 24.1536 34.9334 22.8848C35.387 22.5597 35.8407 22.1927 36.2909 21.7803C36.7375 22.1927 37.1947 22.5562 37.6484 22.8848C39.4069 24.1536 41.1865 24.8317 42.7937 25.1673C46.286 25.8978 48.9835 25.003 48.9835 25.003V36.4223L43.8945 35.5974Z" fill="#C3A182"/>
</g>
<defs>
<clipPath id="clip0_43_4664">
<rect width="74" height="74" fill="white"/>
</clipPath>
</defs>
</svg>
