<svg width="90" height="90" viewBox="0 0 90 90" fill="none" xmlns="http://www.w3.org/2000/svg">
<circle cx="45" cy="45" r="45" fill="#C3A182"/>
<mask id="mask0_43_4714" style="mask-type:alpha" maskUnits="userSpaceOnUse" x="15" y="15" width="60" height="60">
<g clip-path="url(#clip0_43_4714)">
<path d="M23.7262 33.7249L23.8207 33.5895C23.8207 33.5895 25.5083 33.2524 26.2979 32.1416C26.6038 31.7105 26.7483 31.1634 26.1784 30.7655C25.5222 30.3041 24.6798 30.9617 23.9236 31.3928C22.8226 32.0255 21.8161 32.5257 20.6873 31.7326C19.3389 30.7821 19.4807 29.243 20.4288 27.9139C21.2601 26.745 22.1331 26.209 22.1331 26.209L23.3258 27.1927L23.2313 27.3281C23.2313 27.3281 21.9079 27.7619 21.2684 28.6627C20.9542 29.1021 20.8847 29.5856 21.2906 29.8702C21.9857 30.3593 22.9699 29.5414 23.6539 29.1325C24.6659 28.5218 25.5945 28.0548 26.74 28.8617C28.4443 30.0609 27.9884 31.6387 27.0681 32.9291C26.1061 34.2803 25.0579 34.8357 25.0579 34.8357L23.7234 33.7249H23.7262Z" fill="#002D42"/>
<path d="M25.9309 23.8872L24.0319 25.4153L23.2812 24.4951L28.7056 20.1348L29.4563 21.0549L27.5657 22.5747L31.8418 27.8276L30.2069 29.1401L25.9309 23.8872Z" fill="#002D42"/>
<path d="M30.5352 19.0991L32.4897 18.3309L34.3414 22.9897C34.8529 24.2773 35.5897 24.5315 36.4655 24.1861C37.1022 23.9347 37.5387 23.3102 37.2968 22.4481C37.2579 22.2878 37.1967 22.0695 37.1467 21.9396L36.4405 20.1601C35.6064 18.0656 35.1254 17.2974 35.1254 17.2974L36.8381 16.626L38.7453 21.4284C39.471 23.2494 38.5229 24.6697 36.6573 25.4019C34.3859 26.2945 33.1431 25.6589 32.5175 24.0894L30.5352 19.1018V19.0991Z" fill="#002D42"/>
<path d="M40.0908 15.9515C40.8332 15.8741 41.9508 15.7774 42.8961 15.7526C45.9989 15.6752 47.7561 16.5815 47.8256 19.3862C47.9062 22.5749 45.4456 23.8322 42.6848 23.9123C41.8702 23.9317 40.9499 23.9096 40.2882 23.8902L40.0908 15.9515ZM43.2854 22.8761C44.8896 22.8374 45.593 21.6824 45.543 19.7343C45.4901 17.6122 44.5226 16.6976 43.024 16.7335C42.5041 16.7473 42.2011 16.8136 42.2011 16.8136L42.3484 22.7711C42.3484 22.7711 42.6709 22.8927 43.2826 22.8761H43.2854Z" fill="#002D42"/>
<path d="M50.4562 16.377L55.4163 17.8608L55.0076 19.2092C55.0076 19.2092 53.8287 18.5019 52.5303 18.1123L52.1578 18.0017L51.5127 20.1349L54.3709 20.9888L54.0706 21.978L51.2125 21.1242L50.4701 23.5724L51.0345 23.7409C52.3329 24.1305 53.7092 24.1499 53.7092 24.1499L53.2949 25.5204L48.1514 23.9841L50.4534 16.3797L50.4562 16.377Z" fill="#002D42"/>
<path d="M58.2237 19.0625L60.1198 20.3806L59.8529 26.4513L62.8084 22.2512L64.1624 23.1907L59.586 29.6981L57.815 28.4685L58.0763 22.0965L54.9791 26.4983L53.6445 25.5699L58.2209 19.0625H58.2237Z" fill="#002D42"/>
<path d="M66.1504 27.2837L64.674 25.3495L65.6249 24.6338L69.837 30.1575L68.8862 30.8731L67.4182 28.9472L62.0022 33.0284L60.7344 31.365L66.1504 27.2837Z" fill="#002D42"/>
<path d="M25.5201 55.3584L26.8269 56.9942L24.2301 59.0445L26.0734 61.3518L28.6702 59.3015L29.9769 60.9373L23.7185 65.8752L22.4118 64.2394L25.1198 62.1034L23.2765 59.7961L20.5685 61.9348L19.2617 60.299L25.5201 55.3612V55.3584Z" fill="#002D42"/>
<path d="M31.3585 62.0059L33.2074 62.9979L30.8108 67.4052C30.1491 68.6238 30.4271 69.345 31.2584 69.7926C31.8617 70.1159 32.6235 70.0468 33.1323 69.3063C33.2324 69.1736 33.3603 68.9885 33.427 68.8642L34.3417 67.1814C35.4205 65.2001 35.7013 64.338 35.7013 64.338L37.3222 65.2084L34.8533 69.7511C33.9164 71.4754 32.2148 71.6688 30.4493 70.7183C28.3002 69.5632 27.9888 68.2093 28.7979 66.7227L31.3641 62.0059H31.3585Z" fill="#002D42"/>
<path d="M38.9719 65.7197L41.2767 65.9159L44.1043 71.3042L44.5464 66.1978L46.1923 66.3387L45.5056 74.2498L43.3536 74.0646L40.3731 68.4166L39.9088 73.769L38.2852 73.6308L38.9719 65.7197Z" fill="#002D42"/>
<path d="M49.6423 66.704L47.2957 67.3782L46.9648 66.2398L53.6653 64.3193L53.9962 65.4578L51.6607 66.1292L53.5458 72.62L51.5273 73.1975L49.6423 66.7068V66.704Z" fill="#002D42"/>
<path d="M54.5078 63.728L58.7617 60.7852L59.5707 61.9402C59.5707 61.9402 58.2807 62.4182 57.1658 63.1892L56.846 63.4102L58.1277 65.2395L60.58 63.5428L61.1749 64.3912L58.7227 66.0878L60.1935 68.1878L60.6773 67.8535C61.7922 67.0825 62.6596 66.0242 62.6596 66.0242L63.4826 67.1986L59.0758 70.2492L54.5078 63.7307V63.728Z" fill="#002D42"/>
<path d="M60.0762 59.5995C60.4599 58.9639 60.9881 58.0604 61.533 57.2784C62.4589 55.9465 63.9102 54.1919 65.5506 55.3165C66.5403 55.9962 66.7266 57.1927 66.3012 58.3422L70.8109 58.1294L69.3957 60.1659L65.5367 59.9393L64.8777 59.4862C65.4671 58.6379 65.4254 57.6652 64.6192 57.1126C63.7851 56.5406 63.0094 56.8915 62.4589 57.6818C62.2114 58.0382 62.0641 58.4362 62.0641 58.4362L67.8415 62.4041L66.6543 64.1118L60.079 59.5995H60.0762Z" fill="#002D42"/>
<path d="M15.75 42.4813H17.7574V42.9096C17.7574 42.9096 17.3737 42.8101 16.6564 42.8101H16.3144V44.0149H17.7101V44.3437H16.3144V45.6949H16.7509C17.4738 45.6949 17.8519 45.6009 17.8519 45.6009V46.0237H15.75V42.4785V42.4813Z" fill="#C3A182"/>
<path d="M18.2637 45.372C18.2637 45.372 18.728 45.7754 19.3591 45.7754C19.7289 45.7754 20.0347 45.5654 20.0347 45.1482C20.0347 44.7309 19.7762 44.5983 19.3091 44.4408C18.8142 44.2778 18.2498 44.0899 18.2498 43.4101C18.2498 42.7304 18.7808 42.4209 19.4731 42.4209C20.0681 42.4209 20.3906 42.5563 20.3906 42.5563L20.3489 43.0481C20.3489 43.0481 19.9958 42.7249 19.5009 42.7249C19.1423 42.7249 18.8058 42.8768 18.8058 43.2803C18.8058 43.7086 19.1311 43.8246 19.5649 43.9545C20.0403 44.0954 20.6353 44.2833 20.6353 45.0073C20.6353 45.8252 20.0041 46.1015 19.3341 46.1015C18.664 46.1015 18.2275 45.9247 18.2275 45.9247C18.2442 45.7423 18.2581 45.5571 18.2692 45.3748L18.2637 45.372Z" fill="#C3A182"/>
<path d="M22.0917 42.8213H20.8906V42.4814H23.8572V42.8213H22.6561V46.0266H22.0917V42.8213Z" fill="#C3A182"/>
<path d="M64.9113 45.6402V46.0271H62.4785V45.6651C62.4785 45.6651 63.0429 45.2147 63.4433 44.8472C63.8853 44.4493 64.2746 44.0293 64.2746 43.507C64.2746 43.0511 63.9437 42.8273 63.4516 42.8273C63.029 42.8273 62.6342 43.0483 62.6342 43.0483V42.5979C62.6342 42.5979 63.0818 42.4238 63.6713 42.4238C64.3552 42.4238 64.8668 42.7002 64.8668 43.4352C64.8668 44.2835 63.7408 45.1207 63.0485 45.6402H64.9085H64.9113Z" fill="#C3A182"/>
<path d="M66.8131 46.0932C65.8066 46.0932 65.5342 45.1675 65.5342 44.333C65.5342 43.3549 65.929 42.4209 66.9466 42.4209C67.9642 42.4209 68.2255 43.3466 68.2255 44.1811C68.2255 45.1592 67.8307 46.0932 66.8131 46.0932ZM66.9299 45.7368C67.5944 45.7368 67.6833 44.7724 67.6833 44.3275C67.6778 43.7721 67.5415 42.7774 66.8354 42.7774C66.1709 42.7774 66.0819 43.7417 66.0819 44.1866C66.0875 44.742 66.2237 45.7368 66.9299 45.7368Z" fill="#C3A182"/>
<path d="M71.1359 45.6402V46.0271H68.7031V45.6651C68.7031 45.6651 69.2675 45.2147 69.6679 44.8472C70.1099 44.4493 70.4992 44.0293 70.4992 43.507C70.4992 43.0511 70.1683 42.8273 69.6762 42.8273C69.2536 42.8273 68.8588 43.0483 68.8588 43.0483V42.5979C68.8588 42.5979 69.3064 42.4238 69.8959 42.4238C70.5798 42.4238 71.0914 42.7002 71.0914 43.4352C71.0914 44.2835 69.9654 45.1207 69.2731 45.6402H71.1331H71.1359Z" fill="#C3A182"/>
<path d="M74.2501 45.6402V46.0271H71.8174V45.6651C71.8174 45.6651 72.3818 45.2147 72.7821 44.8472C73.2242 44.4493 73.6134 44.0293 73.6134 43.507C73.6134 43.0511 73.2826 42.8273 72.7905 42.8273C72.3679 42.8273 71.9731 43.0483 71.9731 43.0483V42.5979C71.9731 42.5979 72.4207 42.4238 73.0101 42.4238C73.6941 42.4238 74.2056 42.7002 74.2056 43.4352C74.2056 44.2835 73.0796 45.1207 72.3873 45.6402H74.2474H74.2501Z" fill="#C3A182"/>
<path d="M43.3693 35.6621V43.7666L39.3018 43.1311V37.3117C40.2081 37.1791 41.7262 36.7923 43.3693 35.6649V35.6621Z" fill="#C3A182"/>
<path d="M43.3693 29.7567V34.0148C41.9792 35.0178 40.5723 35.5539 39.3018 35.8192V29.7539H43.3693V29.7567Z" fill="#C3A182"/>
<path d="M43.3693 56.237V58.7128H39.3018V54.4326C40.5723 54.6979 41.9764 55.2339 43.3693 56.237Z" fill="#C3A182"/>
<path d="M49.5803 37.3109V44.7412L45.5127 44.1057V35.6641C47.1558 36.7915 48.6711 37.1811 49.5803 37.3109Z" fill="#C3A182"/>
<path d="M45.5127 54.6231V46.5186L49.5803 47.1541V52.9734C48.6739 53.1061 47.1558 53.4929 45.5127 54.6203V54.6231Z" fill="#C3A182"/>
<path d="M39.3018 52.9762V45.5459L43.3693 46.1814V54.6231C41.7262 53.4957 40.2109 53.1061 39.3018 52.9762Z" fill="#C3A182"/>
<path d="M49.5803 29.7568V35.8221C48.3097 35.5568 46.9056 35.0208 45.5127 34.0177V29.7596H49.5803V29.7568Z" fill="#C3A182"/>
<path d="M49.5803 54.4326V58.7128H45.5127V56.237C46.9028 55.2339 48.3097 54.6979 49.5803 54.4326Z" fill="#C3A182"/>
<path d="M50.4511 43.8908V36.6843C50.4511 36.6843 50.1258 36.6981 49.5809 36.618C48.6745 36.4853 47.1565 36.0985 45.5133 34.9711C45.1602 34.7279 44.8016 34.4516 44.4402 34.1366C44.0815 34.4516 43.7201 34.7279 43.367 34.9711C41.7238 36.0985 40.2086 36.4881 39.2994 36.618C38.7545 36.6981 38.4292 36.6843 38.4292 36.6843V43.4735L39.2994 43.6089L43.367 44.2444L45.5106 44.5816L49.5781 45.2171L54.4714 45.9825V54.7751C54.4714 54.7751 52.3389 54.0704 49.5781 54.6452C48.3075 54.9105 46.9035 55.4465 45.5106 56.4496C45.1519 56.7065 44.7932 56.9967 44.4374 57.3227C44.0843 56.9967 43.7228 56.7093 43.3642 56.4496C41.974 55.4465 40.5672 54.9105 39.2966 54.6452C36.5358 54.0677 34.4033 54.7751 34.4033 54.7751V45.7476L38.4264 46.3998V53.6062C38.4264 53.6062 38.7517 53.5924 39.2966 53.6725C40.203 53.8052 41.721 54.192 43.3642 55.3194C43.7173 55.5626 44.0759 55.8389 44.4374 56.1539C44.796 55.8389 45.1575 55.5626 45.5106 55.3194C47.1537 54.192 48.669 53.8024 49.5781 53.6725C50.1231 53.5924 50.4484 53.6062 50.4484 53.6062V46.7562L49.5781 46.6208L45.5106 45.9853L43.367 45.6509L39.2994 45.0154L34.4061 44.25V35.5155C34.4061 35.5155 36.5386 36.2201 39.2994 35.6453C40.57 35.3801 41.974 34.844 43.367 33.8409C43.7256 33.584 44.0843 33.2938 44.4402 32.9678C44.7933 33.2938 45.1547 33.5812 45.5133 33.8409C46.9035 34.844 48.3103 35.3801 49.5809 35.6453C52.3417 36.2228 54.4742 35.5155 54.4742 35.5155V44.5429L50.4511 43.8908Z" fill="#C3A182"/>
</g>
</mask>
<g mask="url(#mask0_43_4714)">
<rect x="-0.290039" y="4.42773" width="87.75" height="87.75" fill="white"/>
</g>
<defs>
<clipPath id="clip0_43_4714">
<rect width="58.5" height="58.5" fill="white" transform="translate(15.75 15.75)"/>
</clipPath>
</defs>
</svg>
