<svg width="26" height="26" viewBox="0 0 26 26" fill="none" xmlns="http://www.w3.org/2000/svg">
<g clip-path="url(#clip0_43_4926)">
<path d="M14.9602 13.0023L1.90364 25.5749C1.29222 25.157 0.929211 24.462 0.935631 23.7215V2.2831C0.929211 1.54257 1.29222 0.847538 1.90364 0.429688L14.9602 13.0023Z" fill="#2196F3"/>
<path d="M19.5276 8.61074L14.9589 13.0023L1.90234 0.429692C1.95154 0.391564 2.00278 0.356093 2.05579 0.323444C2.74585 -0.0947938 3.60778 -0.108296 4.31062 0.288029L19.5276 8.61074Z" fill="#4CAF50"/>
<path d="M25.0643 13.0009C25.0728 13.8369 24.6185 14.6091 23.8838 15.0079L19.5276 17.3925L14.959 13.0009L19.5276 8.60938L23.8838 10.994C24.6185 11.3928 25.0728 12.165 25.0643 13.0009Z" fill="#FFC107"/>
<path d="M19.5276 17.3916L4.31062 25.7143C3.60623 26.1044 2.74756 26.0909 2.05579 25.6788C2.00278 25.6462 1.95154 25.6107 1.90234 25.5726L14.959 13L19.5276 17.3916Z" fill="#F44336"/>
</g>
<defs>
<clipPath id="clip0_43_4926">
<rect width="26" height="26" fill="white"/>
</clipPath>
</defs>
</svg>
